<svg width="73" height="38" viewBox="0 0 73 38" fill="none" xmlns="http://www.w3.org/2000/svg">
<path d="M12.036 30C21.188 30 26.072 24.368 26.072 15.26C26.072 6.152 21.144 0.519999 12.036 0.519999H0.904V30H12.036ZM11.42 4.92C17.536 4.92 20.88 7.868 20.88 15.26C20.88 22.652 17.536 25.6 11.464 25.6H5.876V4.92H11.42ZM35.1202 30.44C39.6082 30.44 41.6762 27.096 42.3362 24.28V25.864C42.3362 28.944 44.1402 30 46.4282 30H49.4642V25.776H48.1002C47.3082 25.776 46.9562 25.468 46.9562 24.5V16.448C46.9562 11.168 43.9642 8.132 38.6402 8.132C33.8882 8.132 30.5442 10.596 28.8722 12.884L31.8202 16.404C33.0522 14.16 35.2962 12.488 38.1562 12.488C41.1042 12.488 42.0722 13.94 42.2482 16.096L35.0762 19.132C31.6002 20.496 29.4882 22.344 29.4882 25.38C29.4882 28.46 31.6002 30.44 35.1202 30.44ZM34.2402 24.632C34.2402 23.532 34.9882 22.784 36.8362 21.948L42.3362 19.484V21.772C42.3362 24.676 40.1362 26.612 36.8802 26.612C35.0762 26.612 34.2402 25.864 34.2402 24.632ZM56.8112 37.348C60.2872 37.348 62.7952 35.808 64.3352 31.496L72.2552 8.572H66.7992L62.9712 20.716L61.4312 26.436L59.8912 20.716L56.0192 8.572H50.6072L57.6912 28.68H60.7272L60.3312 29.868C59.5392 32.244 58.4832 32.992 56.8112 32.992C54.8312 32.992 53.5112 31.76 52.3672 30.132L50.0352 34.092C51.2232 35.764 53.7312 37.348 56.8112 37.348Z" fill="black"/>
</svg>
