<svg width="101" height="39" viewBox="0 0 101 39" fill="none" xmlns="http://www.w3.org/2000/svg">
<path d="M5.876 30V13.764L5.524 8.396L8.208 12.576L20.44 30H25.016V0.519999H20.044V16.712L20.352 22.3L17.448 17.68L5.524 0.519999H0.904V30H5.876ZM35.4303 5.536V0.519999H30.5023V5.536H35.4303ZM35.4303 30V8.572H30.5023V30H35.4303ZM49.4869 23.576C54.7669 23.576 58.3309 20.408 58.3309 15.876C58.3309 13.192 57.0989 10.992 54.9869 9.628L58.9909 5.228L54.2389 3.6L53.1829 8.748C52.0829 8.352 50.8509 8.132 49.4869 8.132C44.2069 8.132 40.5989 11.344 40.5989 15.876C40.5989 18.604 41.9189 20.848 44.0749 22.168C42.0949 23.532 40.4229 25.424 40.4229 27.36C40.4229 28.988 41.4349 30 42.9749 30.44C40.9069 30.924 38.9709 32.024 38.9709 34.048C38.9709 36.732 42.4469 38.624 48.4309 38.624C56.2189 38.624 60.1789 35.544 60.1789 31.496C60.1789 28.284 57.8469 26.568 53.5789 26.568H46.6709C44.6909 26.568 44.1189 25.996 44.1189 24.896C44.1189 24.148 44.6029 23.312 44.9989 22.652C46.2749 23.268 47.8149 23.576 49.4869 23.576ZM49.4869 20.056C47.1549 20.056 45.3069 18.56 45.3069 15.876C45.3069 13.192 47.1549 11.696 49.4869 11.696C51.8189 11.696 53.6669 13.192 53.6669 15.876C53.6669 18.56 51.8189 20.056 49.4869 20.056ZM48.6509 34.928C44.7349 34.928 42.9749 34.004 42.9749 32.42C42.9749 31.672 43.5029 30.968 43.9869 30.484H52.9189C54.8109 30.484 55.7349 30.968 55.7349 32.112C55.7349 33.916 53.2709 34.928 48.6509 34.928ZM68.2584 30V17.988C68.2584 14.468 69.4904 12.136 73.0984 12.136C76.3984 12.136 77.2784 13.94 77.2784 16.58V30H82.2504V15.084C82.2504 10.64 79.6984 8.132 75.5184 8.132C71.2504 8.132 69.0504 11.036 68.2584 14.424V0.519999H63.3304V30H68.2584ZM94.4923 30.484C97.6163 30.484 99.7283 29.032 100.652 27.668L99.1123 23.268C98.4963 24.5 97.2643 25.864 95.5923 25.864C94.1403 25.864 93.0403 25.292 93.0403 22.96V12.4H99.5963V8.572H93.0403V2.852L88.1123 5.976V8.572H84.7683V12.4H88.1123V24.148C88.1123 27.932 90.4443 30.484 94.4923 30.484Z" fill="black"/>
</svg>
