<svg width="120" height="38" viewBox="0 0 120 38" fill="none" xmlns="http://www.w3.org/2000/svg">
<path d="M13.8741 30.44C19.8581 30.44 24.3461 27.36 24.3461 22.036C24.3461 16.404 20.1221 14.556 15.4141 13.412L12.1141 12.62C8.90206 11.828 6.87806 10.904 6.87806 8.308C6.87806 6.064 8.90206 4.744 11.7181 4.744C15.3261 4.744 18.4941 6.328 20.1221 9.98L23.8621 6.416C21.7501 2.368 17.4381 0.123999 12.0261 0.123999C6.48206 0.123999 1.68606 3.116 1.68606 8.66C1.68606 14.248 6.13006 16.14 10.3101 17.02L13.0821 17.636C16.9101 18.472 19.2861 19.264 19.2861 22.124C19.2861 24.808 16.9101 25.864 13.9621 25.864C10.3541 25.864 5.91006 24.192 4.32606 19.88L0.806063 23.444C3.09406 28.416 8.24206 30.44 13.8741 30.44ZM35.3942 30.44C39.6622 30.44 41.8622 27.536 42.6542 24.148V30H47.6262V8.572H42.6542V20.584C42.6542 24.104 41.4222 26.436 37.8142 26.436C34.5142 26.436 33.6342 24.632 33.6342 21.992V8.572H28.7062V23.488C28.7062 27.932 31.2582 30.44 35.3942 30.44ZM57.7428 30V17.988C57.7428 14.468 58.9748 12.136 62.5828 12.136C65.8828 12.136 66.7628 13.94 66.7628 16.58V30H71.7348V15.084C71.7348 10.64 69.1828 8.132 65.0028 8.132C60.7348 8.132 58.5348 11.036 57.7428 14.424V8.572H52.8148V30H57.7428ZM81.7193 30V17.988C81.7193 14.468 82.9513 12.136 86.5593 12.136C89.8593 12.136 90.7393 13.94 90.7393 16.58V30H95.7113V15.084C95.7113 10.64 93.1593 8.132 88.9793 8.132C84.7113 8.132 82.5113 11.036 81.7193 14.424V8.572H76.7913V30H81.7193ZM104.346 37.348C107.822 37.348 110.33 35.808 111.87 31.496L119.79 8.572H114.334L110.506 20.716L108.966 26.436L107.426 20.716L103.554 8.572H98.1423L105.226 28.68H108.262L107.866 29.868C107.074 32.244 106.018 32.992 104.346 32.992C102.366 32.992 101.046 31.76 99.9023 30.132L97.5703 34.092C98.7583 35.764 101.266 37.348 104.346 37.348Z" fill="black"/>
</svg>
