<svg width="134" height="38" viewBox="0 0 134 38" fill="none" xmlns="http://www.w3.org/2000/svg">
<path d="M14.7954 30.352C21.3074 30.352 25.7954 26.964 27.8634 21.244L23.5514 18.076C22.6274 22.476 19.8994 25.644 14.8394 25.644C8.76741 25.644 5.90741 21.288 5.90741 15.216C5.90741 9.1 8.76741 4.788 14.8394 4.788C19.8994 4.788 22.6274 7.912 23.5514 12.356L27.8634 9.188C25.7954 3.424 21.3074 0.0799997 14.7954 0.0799997C5.73141 0.0799997 0.627406 6.724 0.627406 15.216C0.627406 23.708 5.73141 30.352 14.7954 30.352ZM37.024 30V0.519999H32.096V30H37.024ZM51.2566 30.44C57.5046 30.44 61.7286 25.952 61.7286 19.308C61.7286 12.62 57.5046 8.132 51.2566 8.132C45.0966 8.132 40.8726 12.62 40.8726 19.308C40.8726 25.952 45.0966 30.44 51.2566 30.44ZM51.3006 26.348C48.1326 26.348 45.9326 24.236 45.9326 19.308C45.9326 14.336 48.1326 12.224 51.3006 12.224C54.5126 12.224 56.7126 14.336 56.7126 19.308C56.7126 24.236 54.5126 26.348 51.3006 26.348ZM72.5114 30.44C76.7794 30.44 78.9794 27.536 79.7714 24.148V30H84.7434V8.572H79.7714V20.584C79.7714 24.104 78.5394 26.436 74.9314 26.436C71.6314 26.436 70.7514 24.632 70.7514 21.992V8.572H65.8234V23.488C65.8234 27.932 68.3754 30.44 72.5114 30.44ZM97.282 30.484C101.55 30.484 103.354 27.624 104.058 24.324V30H108.986V0.519999H104.058V14.336C103.354 10.992 101.462 8.132 97.194 8.132C92.002 8.132 88.658 12.4 88.658 19.308C88.658 26.216 92.002 30.484 97.282 30.484ZM93.718 19.308C93.718 14.512 96.05 12.136 99.13 12.136C102.606 12.136 104.058 14.468 104.058 17.988V20.672C104.058 24.192 102.606 26.48 99.174 26.48C96.05 26.48 93.718 24.148 93.718 19.308ZM118.346 37.348C121.822 37.348 124.33 35.808 125.87 31.496L133.79 8.572H128.334L124.506 20.716L122.966 26.436L121.426 20.716L117.554 8.572H112.142L119.226 28.68H122.262L121.866 29.868C121.074 32.244 120.018 32.992 118.346 32.992C116.366 32.992 115.046 31.76 113.902 30.132L111.57 34.092C112.758 35.764 115.266 37.348 118.346 37.348Z" fill="black"/>
</svg>
