<svg width="200" height="200" viewBox="0 0 200 200" fill="none" xmlns="http://www.w3.org/2000/svg">
<rect width="200" height="200" rx="12" fill="white"/>
<path d="M52.8147 105.823L57.094 84.4205L60.5174 59.1273L63.9408 84.4205L68.2201 105.823H95.1184L110.035 45.751H86.0708L83.3809 71.4091L81.4247 92.5679L78.0013 71.5307L72.4994 45.751H48.2909L43.278 71.5307L39.61 92.5679L37.6538 71.4091L34.964 45.751H11L25.9163 105.823H52.8147Z" fill="black"/>
<path d="M141.862 107.039C151.643 107.039 158.123 102.418 160.691 99.4992L154.7 83.0829C152.743 86.123 149.565 88.0686 146.875 88.0686C144.063 88.0686 142.473 86.4878 142.473 83.3261V62.2889H157.145V45.751H142.473V29.2131L120.465 38.9413V45.751H111.907V62.2889H120.465V86.4878C120.465 98.1616 126.212 107.039 141.862 107.039Z" fill="black"/>
<path d="M52.8148 180L57.094 158.598L60.5175 133.305L63.9409 158.598L68.2202 180H95.1185L110.035 119.928H86.0709L83.3811 145.587L81.4248 166.745L78.0014 145.708L72.4995 119.928H48.2909L43.2781 145.708L39.6101 166.745L37.6539 145.587L34.964 119.928H11.0001L25.9164 180H52.8148Z" fill="black"/>
<path d="M134.837 180V149.721C134.837 139.993 139.483 135.25 144.495 135.25C148.041 135.25 149.508 137.561 149.508 140.966C149.508 144.614 147.063 149.235 144.862 151.788H165.036C166.748 148.748 169.193 142.546 169.193 135.25C169.193 125.279 165.281 118.712 154.766 118.712C142.417 118.712 136.671 129.9 134.837 140.236V119.928H112.829V180H134.837Z" fill="black"/>
<path d="M177.018 33.9557C183.62 33.9557 189 29.0916 189 21.917C189 14.8641 183.62 10 177.018 10C170.416 10 165.036 14.8641 165.036 21.917C165.036 29.0916 170.416 33.9557 177.018 33.9557ZM177.018 25.5651C175.062 25.5651 173.839 24.2275 173.839 21.917C173.839 19.6066 175.062 18.3906 177.018 18.3906C178.974 18.3906 180.197 19.6066 180.197 21.917C180.197 24.2275 178.974 25.5651 177.018 25.5651Z" fill="black"/>
</svg>
