<svg width="66" height="39" viewBox="0 0 66 39" fill="none" xmlns="http://www.w3.org/2000/svg">
<path d="M5.16897 30V18.384H17.973V13.984H5.16897V4.92H20.657V0.519999H0.196969V30H5.16897ZM31.4676 30.44C37.7156 30.44 41.9396 25.952 41.9396 19.308C41.9396 12.62 37.7156 8.132 31.4676 8.132C25.3076 8.132 21.0836 12.62 21.0836 19.308C21.0836 25.952 25.3076 30.44 31.4676 30.44ZM31.5116 26.348C28.3436 26.348 26.1436 24.236 26.1436 19.308C26.1436 14.336 28.3436 12.224 31.5116 12.224C34.7236 12.224 36.9236 14.336 36.9236 19.308C36.9236 24.236 34.7236 26.348 31.5116 26.348ZM54.7525 23.576C60.0325 23.576 63.5965 20.408 63.5965 15.876C63.5965 13.192 62.3645 10.992 60.2525 9.628L64.2565 5.228L59.5045 3.6L58.4485 8.748C57.3485 8.352 56.1165 8.132 54.7525 8.132C49.4725 8.132 45.8645 11.344 45.8645 15.876C45.8645 18.604 47.1845 20.848 49.3405 22.168C47.3605 23.532 45.6885 25.424 45.6885 27.36C45.6885 28.988 46.7005 30 48.2405 30.44C46.1725 30.924 44.2365 32.024 44.2365 34.048C44.2365 36.732 47.7125 38.624 53.6965 38.624C61.4845 38.624 65.4445 35.544 65.4445 31.496C65.4445 28.284 63.1125 26.568 58.8445 26.568H51.9365C49.9565 26.568 49.3845 25.996 49.3845 24.896C49.3845 24.148 49.8685 23.312 50.2645 22.652C51.5405 23.268 53.0805 23.576 54.7525 23.576ZM54.7525 20.056C52.4205 20.056 50.5725 18.56 50.5725 15.876C50.5725 13.192 52.4205 11.696 54.7525 11.696C57.0845 11.696 58.9325 13.192 58.9325 15.876C58.9325 18.56 57.0845 20.056 54.7525 20.056ZM53.9165 34.928C50.0005 34.928 48.2405 34.004 48.2405 32.42C48.2405 31.672 48.7685 30.968 49.2525 30.484H58.1845C60.0765 30.484 61.0005 30.968 61.0005 32.112C61.0005 33.916 58.5365 34.928 53.9165 34.928Z" fill="black"/>
</svg>
