<svg width="160" height="17" viewBox="0 0 160 17" fill="none" xmlns="http://www.w3.org/2000/svg">
<path d="M5.46 14.2C8.74 14.2 10.32 12.7 10.32 8.82V0.6H8.06V8.5C8.06 11.16 7.4 12.04 5.46 12.04C3.4 12.04 2.42 10.5 2.16 8.36L0.2 9.8C0.82 12.52 2.68 14.2 5.46 14.2ZM15.8202 14.2C17.7602 14.2 18.7602 12.88 19.1202 11.34V14H21.3802V4.26H19.1202V9.72C19.1202 11.32 18.5602 12.38 16.9202 12.38C15.4202 12.38 15.0202 11.56 15.0202 10.36V4.26H12.7802V11.04C12.7802 13.06 13.9402 14.2 15.8202 14.2ZM25.9786 14V8.54C25.9786 6.94 26.5386 5.88 28.1786 5.88C29.6786 5.88 30.0786 6.7 30.0786 7.9V14H32.3386V7.22C32.3386 5.2 31.1786 4.06 29.2786 4.06C27.3386 4.06 26.3386 5.38 25.9786 6.92V4.26H23.7386V14H25.9786ZM38.918 14.2C41.078 14.2 42.398 13.22 43.138 12.1L41.758 10.66C41.398 11.48 40.638 12.36 38.938 12.36C37.398 12.36 36.378 11.42 36.258 9.68H43.218C43.258 9.48 43.298 9.06 43.298 8.7C43.298 6 41.678 4.06 38.758 4.06C36.018 4.06 34.118 6.08 34.118 9.14C34.118 12.18 36.018 14.2 38.918 14.2ZM38.758 5.86C40.238 5.86 41.118 6.7 41.278 8.24H36.278C36.458 6.66 37.378 5.86 38.758 5.86ZM53.5612 14V0.6H51.5813C50.9013 1.46 49.9613 1.8 48.8613 1.8V3.44H51.3013V14H53.5612ZM61.3061 14.2C64.3461 14.2 66.2461 12.36 66.2461 9.6C66.2461 6.94 64.7661 5.22 62.2261 5.22C60.4461 5.22 59.3661 6.18 58.9461 7.38L59.2661 2.68H65.2461V0.6H57.1061L56.6661 8.22L58.8661 8.44L58.8861 8.26C59.0061 7.4 59.9061 6.86 61.1861 6.86C62.5661 6.86 63.8261 7.62 63.8261 9.5C63.8261 11.06 62.9461 12.02 61.3261 12.02C59.6061 12.02 58.4261 11.02 57.9661 9.36L56.1661 11.1C56.8461 12.84 58.7461 14.2 61.3061 14.2ZM68.607 16.32C70.107 16.16 70.687 15.38 70.687 14.04V11.16H68.127V14H69.307V14.26C69.307 14.92 68.867 15.06 68.147 15.14L68.607 16.32ZM79.3417 14V6.62L79.1817 4.18L80.4017 6.08L85.9617 14H88.0417V0.6H85.7817V7.96L85.9217 10.5L84.6017 8.4L79.1817 0.6H77.0817V14H79.3417ZM94.7969 14.2C96.9569 14.2 98.2769 13.22 99.0169 12.1L97.6369 10.66C97.2769 11.48 96.5169 12.36 94.8169 12.36C93.2769 12.36 92.2569 11.42 92.1369 9.68H99.0969C99.1369 9.48 99.1769 9.06 99.1769 8.7C99.1769 6 97.5569 4.06 94.6369 4.06C91.8969 4.06 89.9969 6.08 89.9969 9.14C89.9969 12.18 91.8969 14.2 94.7969 14.2ZM94.6369 5.86C96.1169 5.86 96.9969 6.7 97.1569 8.24H92.1569C92.3369 6.66 93.2569 5.86 94.6369 5.86ZM105.013 14L106.373 8.94L107.013 5.92L107.633 8.94L109.013 14H111.873L114.373 4.26H111.873L110.853 9.74L110.433 12.48L109.833 9.74L108.333 4.26H105.673L104.193 9.74L103.573 12.48L103.153 9.74L102.153 4.26H99.6527L102.133 14H105.013ZM126.091 14V9.16L131.131 0.6H128.511L126.431 4.3L124.971 7.36L123.571 4.28L121.591 0.6H118.791L123.831 9.16V14H126.091ZM134.909 14.2C137.749 14.2 139.669 12.16 139.669 9.14C139.669 6.1 137.749 4.06 134.909 4.06C132.109 4.06 130.189 6.1 130.189 9.14C130.189 12.16 132.109 14.2 134.909 14.2ZM134.929 12.34C133.489 12.34 132.489 11.38 132.489 9.14C132.489 6.88 133.489 5.92 134.929 5.92C136.389 5.92 137.389 6.88 137.389 9.14C137.389 11.38 136.389 12.34 134.929 12.34ZM143.83 14V8.64C143.83 7.02 144.87 5.74 145.99 5.74C146.65 5.74 146.91 6.18 146.91 6.72C146.91 7.28 146.61 7.92 146.29 8.24H148.59C148.77 7.94 149.03 7.24 149.03 6.3C149.03 4.86 148.13 4.06 146.91 4.06C145.17 4.06 144.19 5.46 143.83 7.02V4.26H141.59V14H143.83ZM152.717 14V10.88L154.177 9.44L157.017 14H159.637L155.697 8.1L159.637 4.26H156.897L154.237 6.86L152.637 8.62L152.717 6.74V0.6H150.477V14H152.717Z" fill="black"/>
</svg>
