<svg width="80" height="31" viewBox="0 0 80 31" fill="none" xmlns="http://www.w3.org/2000/svg">
<path d="M5.01272 30V18.56H8.62072C11.3927 18.56 12.8887 19.264 13.9887 21.244L19.0927 30H24.8127L19.7967 21.508C18.7407 19.66 17.5527 18.56 15.7927 18.032C20.4127 17.504 23.8007 14.6 23.8007 9.672C23.8007 3.6 19.3127 0.519999 13.3287 0.519999H0.0407187V30H5.01272ZM12.8447 4.92C15.9687 4.92 18.6527 6.064 18.6527 9.804C18.6527 13.368 15.9687 14.512 12.8447 14.512H5.01272V4.92H12.8447ZM32.3663 30.44C36.8543 30.44 38.9223 27.096 39.5823 24.28V25.864C39.5823 28.944 41.3863 30 43.6743 30H46.7103V25.776H45.3463C44.5543 25.776 44.2023 25.468 44.2023 24.5V16.448C44.2023 11.168 41.2103 8.132 35.8863 8.132C31.1343 8.132 27.7903 10.596 26.1183 12.884L29.0663 16.404C30.2983 14.16 32.5423 12.488 35.4023 12.488C38.3503 12.488 39.3183 13.94 39.4943 16.096L32.3223 19.132C28.8463 20.496 26.7343 22.344 26.7343 25.38C26.7343 28.46 28.8463 30.44 32.3663 30.44ZM31.4863 24.632C31.4863 23.532 32.2343 22.784 34.0823 21.948L39.5823 19.484V21.772C39.5823 24.676 37.3823 26.612 34.1263 26.612C32.3223 26.612 31.4863 25.864 31.4863 24.632ZM55.4068 5.536V0.519999H50.4788V5.536H55.4068ZM55.4068 30V8.572H50.4788V30H55.4068ZM65.5474 30V17.988C65.5474 14.468 66.7794 12.136 70.3874 12.136C73.6874 12.136 74.5674 13.94 74.5674 16.58V30H79.5394V15.084C79.5394 10.64 76.9874 8.132 72.8074 8.132C68.5394 8.132 66.3394 11.036 65.5474 14.424V8.572H60.6194V30H65.5474Z" fill="black"/>
</svg>
