<svg width="106" height="31" viewBox="0 0 106 31" fill="none" xmlns="http://www.w3.org/2000/svg">
<path d="M13.9678 30.44C19.9518 30.44 24.4398 27.36 24.4398 22.036C24.4398 16.404 20.2158 14.556 15.5078 13.412L12.2078 12.62C8.99581 11.828 6.97181 10.904 6.97181 8.308C6.97181 6.064 8.99581 4.744 11.8118 4.744C15.4198 4.744 18.5878 6.328 20.2158 9.98L23.9558 6.416C21.8438 2.368 17.5318 0.123999 12.1198 0.123999C6.57581 0.123999 1.77981 3.116 1.77981 8.66C1.77981 14.248 6.22381 16.14 10.4038 17.02L13.1758 17.636C17.0038 18.472 19.3798 19.264 19.3798 22.124C19.3798 24.808 17.0038 25.864 14.0558 25.864C10.4478 25.864 6.00381 24.192 4.41981 19.88L0.899813 23.444C3.18781 28.416 8.33581 30.44 13.9678 30.44ZM33.8599 30V17.988C33.8599 14.468 35.0919 12.136 38.6999 12.136C41.9999 12.136 42.8799 13.94 42.8799 16.58V30H47.8519V15.084C47.8519 10.64 45.2999 8.132 41.1199 8.132C36.8519 8.132 34.6519 11.036 33.8599 14.424V8.572H28.9319V30H33.8599ZM61.8426 30.44C68.0906 30.44 72.3146 25.952 72.3146 19.308C72.3146 12.62 68.0906 8.132 61.8426 8.132C55.6826 8.132 51.4586 12.62 51.4586 19.308C51.4586 25.952 55.6826 30.44 61.8426 30.44ZM61.8866 26.348C58.7186 26.348 56.5186 24.236 56.5186 19.308C56.5186 14.336 58.7186 12.224 61.8866 12.224C65.0986 12.224 67.2986 14.336 67.2986 19.308C67.2986 24.236 65.0986 26.348 61.8866 26.348ZM85.0591 30L88.0511 18.868L89.4591 12.224L90.8231 18.868L93.8591 30H100.151L105.651 8.572H100.151L97.9071 20.628L96.9831 26.656L95.6631 20.628L92.3631 8.572H86.5111L83.2551 20.628L81.8911 26.656L80.9671 20.628L78.7671 8.572H73.2671L78.7231 30H85.0591Z" fill="black"/>
</svg>
