<svg width="118" height="31" viewBox="0 0 118 31" fill="none" xmlns="http://www.w3.org/2000/svg">
<path d="M13.4444 30.44C19.4284 30.44 23.9164 27.36 23.9164 22.036C23.9164 16.404 19.6924 14.556 14.9844 13.412L11.6844 12.62C8.47238 11.828 6.44838 10.904 6.44838 8.308C6.44838 6.064 8.47238 4.744 11.2884 4.744C14.8964 4.744 18.0644 6.328 19.6924 9.98L23.4324 6.416C21.3204 2.368 17.0084 0.123999 11.5964 0.123999C6.05238 0.123999 1.25638 3.116 1.25638 8.66C1.25638 14.248 5.70038 16.14 9.88038 17.02L12.6524 17.636C16.4804 18.472 18.8564 19.264 18.8564 22.124C18.8564 24.808 16.4804 25.864 13.5324 25.864C9.92438 25.864 5.48038 24.192 3.89638 19.88L0.376375 23.444C2.66438 28.416 7.81238 30.44 13.4444 30.44ZM35.1213 30.484C38.2453 30.484 40.3573 29.032 41.2813 27.668L39.7413 23.268C39.1253 24.5 37.8933 25.864 36.2213 25.864C34.7693 25.864 33.6693 25.292 33.6693 22.96V12.4H40.2253V8.572H33.6693V2.852L28.7413 5.976V8.572H25.3973V12.4H28.7413V24.148C28.7413 27.932 31.0733 30.484 35.1213 30.484ZM52.2097 30.44C58.4578 30.44 62.6818 25.952 62.6818 19.308C62.6818 12.62 58.4578 8.132 52.2097 8.132C46.0498 8.132 41.8258 12.62 41.8258 19.308C41.8258 25.952 46.0498 30.44 52.2097 30.44ZM52.2538 26.348C49.0858 26.348 46.8858 24.236 46.8858 19.308C46.8858 14.336 49.0858 12.224 52.2538 12.224C55.4658 12.224 57.6658 14.336 57.6658 19.308C57.6658 24.236 55.4658 26.348 52.2538 26.348ZM71.8365 30V18.208C71.8365 14.644 74.1245 11.828 76.5885 11.828C78.0405 11.828 78.6125 12.796 78.6125 13.984C78.6125 15.216 77.9525 16.624 77.2485 17.328H82.3085C82.7045 16.668 83.2765 15.128 83.2765 13.06C83.2765 9.892 81.2965 8.132 78.6125 8.132C74.7845 8.132 72.6285 11.212 71.8365 14.644V8.572H66.9085V30H71.8365ZM91.1295 30V17.988C91.1295 14.468 92.3615 12.136 95.2655 12.136C98.1695 12.136 99.4015 13.632 99.4015 16.58V30H104.329V17.988C104.329 14.468 105.561 12.136 108.465 12.136C111.369 12.136 112.601 13.632 112.601 16.58V30H117.529V15.084C117.529 10.64 115.373 8.132 111.281 8.132C107.189 8.132 105.077 11.08 104.329 14.468C104.109 10.42 101.997 8.132 98.0815 8.132C94.0335 8.132 91.9215 11.036 91.1295 14.424V8.572H86.2015V30H91.1295Z" fill="black"/>
</svg>
