<svg width="377" height="31" viewBox="0 0 377 31" fill="none" xmlns="http://www.w3.org/2000/svg">
<path d="M14.388 30L19.096 12.532L20.812 4.304L22.528 12.532L27.148 30H33.396L41.184 0.519999H35.552L31.636 17.68L30.272 25.996L28.6 17.988L24.068 0.519999H17.644L13.024 17.988L11.308 25.996L9.988 17.68L6.16 0.519999H0.44L8.14 30H14.388ZM51.5023 30.44C56.2543 30.44 59.1583 28.284 60.7863 25.82L57.7503 22.652C56.9583 24.456 55.2863 26.392 51.5463 26.392C48.1583 26.392 45.9143 24.324 45.6503 20.496H60.9623C61.0503 20.056 61.1383 19.132 61.1383 18.34C61.1383 12.4 57.5743 8.132 51.1503 8.132C45.1223 8.132 40.9423 12.576 40.9423 19.308C40.9423 25.996 45.1223 30.44 51.5023 30.44ZM51.1503 12.092C54.4063 12.092 56.3423 13.94 56.6943 17.328H45.6943C46.0903 13.852 48.1143 12.092 51.1503 12.092ZM70.0772 30.44C74.5652 30.44 76.6332 27.096 77.2932 24.28V25.864C77.2932 28.944 79.0972 30 81.3852 30H84.4212V25.776H83.0572C82.2652 25.776 81.9132 25.468 81.9132 24.5V16.448C81.9132 11.168 78.9212 8.132 73.5972 8.132C68.8452 8.132 65.5012 10.596 63.8292 12.884L66.7772 16.404C68.0092 14.16 70.2532 12.488 73.1132 12.488C76.0612 12.488 77.0292 13.94 77.2052 16.096L70.0332 19.132C66.5572 20.496 64.4452 22.344 64.4452 25.38C64.4452 28.46 66.5572 30.44 70.0772 30.44ZM69.1972 24.632C69.1972 23.532 69.9452 22.784 71.7932 21.948L77.2932 19.484V21.772C77.2932 24.676 75.0932 26.612 71.8372 26.612C70.0332 26.612 69.1972 25.864 69.1972 24.632ZM95.3752 30.484C98.4992 30.484 100.611 29.032 101.535 27.668L99.9952 23.268C99.3792 24.5 98.1472 25.864 96.4752 25.864C95.0232 25.864 93.9232 25.292 93.9232 22.96V12.4H100.479V8.572H93.9232V2.852L88.9952 5.976V8.572H85.6512V12.4H88.9952V24.148C88.9952 27.932 91.3272 30.484 95.3752 30.484ZM109.79 30V17.988C109.79 14.468 111.022 12.136 114.63 12.136C117.93 12.136 118.81 13.94 118.81 16.58V30H123.782V15.084C123.782 10.64 121.23 8.132 117.05 8.132C112.782 8.132 110.582 11.036 109.79 14.424V0.519999H104.862V30H109.79ZM138.256 30.44C143.008 30.44 145.912 28.284 147.54 25.82L144.504 22.652C143.712 24.456 142.04 26.392 138.3 26.392C134.912 26.392 132.668 24.324 132.404 20.496H147.716C147.804 20.056 147.892 19.132 147.892 18.34C147.892 12.4 144.328 8.132 137.904 8.132C131.876 8.132 127.696 12.576 127.696 19.308C127.696 25.996 131.876 30.44 138.256 30.44ZM137.904 12.092C141.16 12.092 143.096 13.94 143.448 17.328H132.448C132.844 13.852 134.868 12.092 137.904 12.092ZM157.141 30V18.208C157.141 14.644 159.429 11.828 161.893 11.828C163.345 11.828 163.917 12.796 163.917 13.984C163.917 15.216 163.257 16.624 162.553 17.328H167.613C168.009 16.668 168.581 15.128 168.581 13.06C168.581 9.892 166.601 8.132 163.917 8.132C160.089 8.132 157.933 11.212 157.141 14.644V8.572H152.213V30H157.141ZM190.2 30.44C195.568 30.44 198.956 27.404 200.1 23.356L195.656 21.156C195.172 24.236 193.632 26.304 190.288 26.304C186.9 26.304 184.832 23.796 184.832 19.308C184.832 14.776 186.9 12.268 190.288 12.268C193.588 12.268 195.172 14.336 195.656 17.416L200.1 15.216C198.956 11.168 195.568 8.132 190.2 8.132C183.82 8.132 179.816 12.62 179.816 19.308C179.816 25.952 183.82 30.44 190.2 30.44ZM212.538 30.44C218.786 30.44 223.01 25.952 223.01 19.308C223.01 12.62 218.786 8.132 212.538 8.132C206.378 8.132 202.154 12.62 202.154 19.308C202.154 25.952 206.378 30.44 212.538 30.44ZM212.582 26.348C209.414 26.348 207.214 24.236 207.214 19.308C207.214 14.336 209.414 12.224 212.582 12.224C215.794 12.224 217.994 14.336 217.994 19.308C217.994 24.236 215.794 26.348 212.582 26.348ZM232.165 30V17.988C232.165 14.468 233.397 12.136 237.005 12.136C240.305 12.136 241.185 13.94 241.185 16.58V30H246.157V15.084C246.157 10.64 243.605 8.132 239.425 8.132C235.157 8.132 232.957 11.036 232.165 14.424V8.572H227.237V30H232.165ZM258.563 30.484C262.831 30.484 264.635 27.624 265.339 24.324V30H270.267V0.519999H265.339V14.336C264.635 10.992 262.743 8.132 258.475 8.132C253.283 8.132 249.939 12.4 249.939 19.308C249.939 26.216 253.283 30.484 258.563 30.484ZM254.999 19.308C254.999 14.512 257.331 12.136 260.411 12.136C263.887 12.136 265.339 14.468 265.339 17.988V20.672C265.339 24.192 263.887 26.48 260.455 26.48C257.331 26.48 254.999 24.148 254.999 19.308ZM280.376 5.536V0.519999H275.448V5.536H280.376ZM280.376 30V8.572H275.448V30H280.376ZM293.332 30.484C296.456 30.484 298.568 29.032 299.492 27.668L297.952 23.268C297.336 24.5 296.104 25.864 294.432 25.864C292.98 25.864 291.88 25.292 291.88 22.96V12.4H298.436V8.572H291.88V2.852L286.952 5.976V8.572H283.608V12.4H286.952V24.148C286.952 27.932 289.284 30.484 293.332 30.484ZM307.747 5.536V0.519999H302.819V5.536H307.747ZM307.747 30V8.572H302.819V30H307.747ZM321.979 30.44C328.227 30.44 332.451 25.952 332.451 19.308C332.451 12.62 328.227 8.132 321.979 8.132C315.819 8.132 311.595 12.62 311.595 19.308C311.595 25.952 315.819 30.44 321.979 30.44ZM322.023 26.348C318.855 26.348 316.655 24.236 316.655 19.308C316.655 14.336 318.855 12.224 322.023 12.224C325.235 12.224 327.435 14.336 327.435 19.308C327.435 24.236 325.235 26.348 322.023 26.348ZM341.606 30V17.988C341.606 14.468 342.838 12.136 346.446 12.136C349.746 12.136 350.626 13.94 350.626 16.58V30H355.598V15.084C355.598 10.64 353.046 8.132 348.866 8.132C344.598 8.132 342.398 11.036 341.606 14.424V8.572H336.678V30H341.606ZM368.811 30.44C373.343 30.44 376.907 28.328 376.907 24.104C376.907 21.024 375.147 19.088 370.351 17.856L367.755 17.196C364.851 16.448 363.707 15.876 363.707 14.336C363.707 12.884 364.983 12.092 366.875 12.092C369.647 12.092 371.935 13.5 373.431 15.876L376.335 12.796C375.015 10.376 371.803 8.176 367.227 8.176C362.299 8.176 359.087 10.596 359.087 14.6C359.087 18.516 362.211 20.012 365.599 20.804L368.459 21.508C370.835 22.08 372.463 22.608 372.463 24.192C372.463 25.732 371.099 26.48 368.987 26.48C365.159 26.48 362.519 24.28 361.331 22.124L358.427 25.204C360.055 28.592 364.235 30.44 368.811 30.44Z" fill="black"/>
</svg>
